<svg width="218" height="231" viewBox="0 0 218 231" fill="none" xmlns="http://www.w3.org/2000/svg">
<g filter="url(#filter0_d_0_482)">
<rect x="9" y="7" width="200" height="56" rx="5" fill="#2B3844"/>
</g>
<path d="M34.218 40V30.13H40.322V31.096H35.352V34.498H40.042V35.464H35.352V40H34.218ZM41.843 40V33.182H42.977V40H41.843ZM41.731 30.228H43.103V31.502H41.731V30.228ZM45.0969 40V30.13H46.2309V40H45.0969ZM51.3468 39.188C51.5521 39.188 51.7574 39.174 51.9628 39.146L51.9068 40.042C51.6921 40.0793 51.4588 40.098 51.2068 40.098C50.3854 40.098 49.7648 39.8833 49.3448 39.454C48.9341 39.0247 48.7288 38.4273 48.7288 37.662V34.078H47.3988V33.182H48.7288V31.11H49.8628V33.182H51.7948V34.078H49.8628V37.578C49.8628 38.6513 50.3574 39.188 51.3468 39.188ZM58.8206 36.766H53.8366C53.8739 37.5593 54.0886 38.1613 54.4806 38.572C54.8726 38.9733 55.4279 39.174 56.1466 39.174C56.9399 39.174 57.6679 38.9033 58.3306 38.362L58.7086 39.188C58.4099 39.468 58.0273 39.692 57.5606 39.86C57.0939 40.0187 56.6179 40.098 56.1326 40.098C55.0686 40.098 54.2286 39.7853 53.6126 39.16C53.0059 38.5347 52.7026 37.6713 52.7026 36.57C52.7026 35.87 52.8379 35.254 53.1086 34.722C53.3793 34.1807 53.7573 33.7607 54.2426 33.462C54.7373 33.1633 55.2973 33.014 55.9226 33.014C56.8279 33.014 57.5373 33.3127 58.0506 33.91C58.5639 34.498 58.8206 35.31 58.8206 36.346V36.766ZM55.9366 33.896C55.3393 33.896 54.8586 34.0827 54.4946 34.456C54.1399 34.8293 53.9299 35.3567 53.8646 36.038H57.8266C57.8079 35.3473 57.6353 34.82 57.3086 34.456C56.9819 34.0827 56.5246 33.896 55.9366 33.896ZM64.3554 33.994L63.6134 34.064C62.9134 34.1293 62.4047 34.3487 62.0874 34.722C61.7794 35.0953 61.6254 35.5573 61.6254 36.108V40H60.4914V33.182H61.5974V34.372C61.9801 33.5787 62.7314 33.1353 63.8514 33.042L64.2574 33.014L64.3554 33.994ZM72.4663 33.014C73.0637 33.014 73.591 33.1587 74.0483 33.448C74.5057 33.7373 74.8603 34.148 75.1123 34.68C75.3643 35.212 75.4903 35.828 75.4903 36.528C75.4903 37.2373 75.3643 37.8627 75.1123 38.404C74.8603 38.936 74.5057 39.3513 74.0483 39.65C73.591 39.9487 73.0637 40.098 72.4663 40.098C71.9343 40.098 71.4677 39.9813 71.0663 39.748C70.6743 39.5147 70.3757 39.1833 70.1703 38.754V40H69.0363V30.13H70.1703V34.358C70.3757 33.9287 70.6743 33.5973 71.0663 33.364C71.4677 33.1307 71.9343 33.014 72.4663 33.014ZM72.2423 39.16C72.905 39.16 73.4183 38.9313 73.7823 38.474C74.1463 38.0073 74.3283 37.3587 74.3283 36.528C74.3283 35.716 74.1463 35.086 73.7823 34.638C73.4183 34.19 72.905 33.966 72.2423 33.966C71.5797 33.966 71.0663 34.19 70.7023 34.638C70.3477 35.086 70.1703 35.7253 70.1703 36.556C70.1703 37.3867 70.3477 38.0307 70.7023 38.488C71.0663 38.936 71.5797 39.16 72.2423 39.16ZM81.9887 33.196H83.1227L79.0907 42.52H77.9287L79.0767 39.916L76.1927 33.196H77.3967L79.6787 38.768L81.9887 33.196ZM95.8415 40H94.5815L92.9015 36.836C92.6962 36.4533 92.4535 36.192 92.1735 36.052C91.9028 35.9027 91.5295 35.828 91.0535 35.828H89.2055V40H88.0715V30.13H92.1315C93.2048 30.13 94.0215 30.368 94.5815 30.844C95.1508 31.32 95.4355 32.02 95.4355 32.944C95.4355 33.7093 95.2162 34.33 94.7775 34.806C94.3482 35.2727 93.7322 35.5667 92.9295 35.688C93.1815 35.7627 93.4008 35.8887 93.5875 36.066C93.7835 36.2433 93.9608 36.4813 94.1195 36.78L95.8415 40ZM92.0335 34.876C92.7988 34.876 93.3682 34.7173 93.7415 34.4C94.1242 34.0827 94.3155 33.602 94.3155 32.958C94.3155 32.3233 94.1288 31.852 93.7555 31.544C93.3822 31.236 92.8082 31.082 92.0335 31.082H89.2055V34.876H92.0335ZM103.213 36.766H98.2292C98.2665 37.5593 98.4812 38.1613 98.8732 38.572C99.2652 38.9733 99.8205 39.174 100.539 39.174C101.333 39.174 102.061 38.9033 102.723 38.362L103.101 39.188C102.803 39.468 102.42 39.692 101.953 39.86C101.487 40.0187 101.011 40.098 100.525 40.098C99.4612 40.098 98.6212 39.7853 98.0052 39.16C97.3985 38.5347 97.0952 37.6713 97.0952 36.57C97.0952 35.87 97.2305 35.254 97.5012 34.722C97.7718 34.1807 98.1498 33.7607 98.6352 33.462C99.1298 33.1633 99.6898 33.014 100.315 33.014C101.221 33.014 101.93 33.3127 102.443 33.91C102.957 34.498 103.213 35.31 103.213 36.346V36.766ZM100.329 33.896C99.7318 33.896 99.2512 34.0827 98.8872 34.456C98.5325 34.8293 98.3225 35.3567 98.2572 36.038H102.219C102.201 35.3473 102.028 34.82 101.701 34.456C101.375 34.0827 100.917 33.896 100.329 33.896ZM110.988 33.182V39.538C110.988 40.5553 110.727 41.3207 110.204 41.834C109.681 42.3567 108.907 42.618 107.88 42.618C106.685 42.618 105.682 42.31 104.87 41.694L105.248 40.854C105.705 41.1527 106.135 41.3673 106.536 41.498C106.937 41.6287 107.385 41.694 107.88 41.694C108.533 41.694 109.028 41.5167 109.364 41.162C109.7 40.8167 109.868 40.308 109.868 39.636V38.432C109.672 38.8707 109.369 39.2067 108.958 39.44C108.557 39.6733 108.081 39.79 107.53 39.79C106.933 39.79 106.401 39.65 105.934 39.37C105.477 39.09 105.117 38.6933 104.856 38.18C104.604 37.6667 104.478 37.074 104.478 36.402C104.478 35.73 104.604 35.1373 104.856 34.624C105.117 34.1107 105.477 33.714 105.934 33.434C106.401 33.154 106.933 33.014 107.53 33.014C108.071 33.014 108.543 33.1307 108.944 33.364C109.345 33.5973 109.649 33.9287 109.854 34.358V33.182H110.988ZM107.754 38.852C108.407 38.852 108.921 38.6373 109.294 38.208C109.667 37.7693 109.854 37.1673 109.854 36.402C109.854 35.646 109.667 35.0533 109.294 34.624C108.93 34.1853 108.417 33.966 107.754 33.966C107.091 33.966 106.569 34.1853 106.186 34.624C105.813 35.0533 105.626 35.646 105.626 36.402C105.626 37.1673 105.813 37.7693 106.186 38.208C106.569 38.6373 107.091 38.852 107.754 38.852ZM113.087 40V33.182H114.221V40H113.087ZM112.975 30.228H114.347V31.502H112.975V30.228ZM119.169 40.098C118.525 40.098 117.956 39.9533 117.461 39.664C116.976 39.3747 116.598 38.964 116.327 38.432C116.066 37.8907 115.935 37.2653 115.935 36.556C115.935 35.8467 116.066 35.226 116.327 34.694C116.598 34.1527 116.976 33.7373 117.461 33.448C117.956 33.1587 118.525 33.014 119.169 33.014C119.813 33.014 120.382 33.1587 120.877 33.448C121.372 33.7373 121.75 34.1527 122.011 34.694C122.282 35.226 122.417 35.8467 122.417 36.556C122.417 37.2653 122.282 37.8907 122.011 38.432C121.75 38.964 121.372 39.3747 120.877 39.664C120.382 39.9533 119.813 40.098 119.169 40.098ZM119.169 39.16C119.841 39.16 120.354 38.9407 120.709 38.502C121.073 38.054 121.255 37.4053 121.255 36.556C121.255 35.7253 121.073 35.086 120.709 34.638C120.345 34.1807 119.832 33.952 119.169 33.952C118.506 33.952 117.993 34.1807 117.629 34.638C117.265 35.086 117.083 35.7253 117.083 36.556C117.083 37.396 117.26 38.04 117.615 38.488C117.979 38.936 118.497 39.16 119.169 39.16ZM127.537 33.014C129.17 33.014 129.987 33.9147 129.987 35.716V40H128.853V35.786C128.853 35.1513 128.727 34.6893 128.475 34.4C128.232 34.1107 127.84 33.966 127.299 33.966C126.673 33.966 126.174 34.1573 125.801 34.54C125.427 34.9227 125.241 35.4407 125.241 36.094V40H124.107V33.182H125.227V34.302C125.451 33.882 125.763 33.5647 126.165 33.35C126.566 33.126 127.023 33.014 127.537 33.014Z" fill="white"/>
<path fill-rule="evenodd" clip-rule="evenodd" d="M188.45 32.45L185 35.9L181.55 32.45L180.5 33.5L185 38L189.5 33.5L188.45 32.45Z" fill="white"/>
<defs>
<filter id="filter0_d_0_482" x="0" y="0" width="218" height="74" filterUnits="userSpaceOnUse" color-interpolation-filters="sRGB">
<feFlood flood-opacity="0" result="BackgroundImageFix"/>
<feColorMatrix in="SourceAlpha" type="matrix" values="0 0 0 0 0 0 0 0 0 0 0 0 0 0 0 0 0 0 127 0" result="hardAlpha"/>
<feOffset dy="2"/>
<feGaussianBlur stdDeviation="4.5"/>
<feColorMatrix type="matrix" values="0 0 0 0 0 0 0 0 0 0 0 0 0 0 0 0 0 0 0.0532439 0"/>
<feBlend mode="normal" in2="BackgroundImageFix" result="effect1_dropShadow_0_482"/>
<feBlend mode="normal" in="SourceGraphic" in2="effect1_dropShadow_0_482" result="shape"/>
</filter>
</defs>
</svg>
