<svg width="498" height="74" viewBox="0 0 498 74" fill="none" xmlns="http://www.w3.org/2000/svg">
<g filter="url(#filter0_d_0_380)">
<rect x="9" y="7" width="480" height="56" rx="5" fill="#2B3844"/>
</g>
<path fill-rule="evenodd" clip-rule="evenodd" d="M53.5 37H52.7L52.4 36.7C53.4 35.6 54 34.1 54 32.5C54 28.9 51.1 26 47.5 26C43.9 26 41 28.9 41 32.5C41 36.1 43.9 39 47.5 39C49.1 39 50.6 38.4 51.7 37.4L52 37.7V38.5L57 43.5L58.5 42L53.5 37ZM47.5 37C45 37 43 35 43 32.5C43 30 45 28 47.5 28C50 28 52 30 52 32.5C52 35 50 37 47.5 37Z" fill="white"/>
<path d="M87.354 40.112C85.814 40.112 84.582 39.6967 83.658 38.866L84.106 37.984C84.5913 38.3947 85.086 38.6887 85.59 38.866C86.1033 39.0433 86.696 39.132 87.368 39.132C88.1613 39.132 88.7727 38.978 89.202 38.67C89.6313 38.362 89.846 37.928 89.846 37.368C89.846 37.0413 89.7433 36.7753 89.538 36.57C89.3327 36.3647 89.062 36.2013 88.726 36.08C88.39 35.9587 87.9373 35.8327 87.368 35.702C86.6027 35.5247 85.9727 35.338 85.478 35.142C84.9927 34.946 84.596 34.666 84.288 34.302C83.9893 33.938 83.84 33.462 83.84 32.874C83.84 32.314 83.9847 31.8193 84.274 31.39C84.5727 30.9513 84.9927 30.6153 85.534 30.382C86.0847 30.1393 86.7193 30.018 87.438 30.018C88.1193 30.018 88.754 30.1253 89.342 30.34C89.9393 30.5547 90.4433 30.8627 90.854 31.264L90.42 32.146C89.9533 31.7447 89.4773 31.4553 88.992 31.278C88.516 31.0913 87.998 30.998 87.438 30.998C86.6727 30.998 86.0707 31.1613 85.632 31.488C85.2027 31.8053 84.988 32.2533 84.988 32.832C84.988 33.3267 85.1793 33.7 85.562 33.952C85.9447 34.204 86.5233 34.4187 87.298 34.596C88.1473 34.8013 88.8147 34.9927 89.3 35.17C89.7853 35.338 90.1867 35.5947 90.504 35.94C90.8307 36.2853 90.994 36.7473 90.994 37.326C90.994 37.886 90.8447 38.376 90.546 38.796C90.2567 39.216 89.8367 39.5427 89.286 39.776C88.7353 40 88.0913 40.112 87.354 40.112ZM98.4026 36.766H93.4186C93.456 37.5593 93.6706 38.1613 94.0626 38.572C94.4546 38.9733 95.01 39.174 95.7286 39.174C96.522 39.174 97.25 38.9033 97.9126 38.362L98.2906 39.188C97.992 39.468 97.6093 39.692 97.1426 39.86C96.676 40.0187 96.2 40.098 95.7146 40.098C94.6506 40.098 93.8106 39.7853 93.1946 39.16C92.588 38.5347 92.2846 37.6713 92.2846 36.57C92.2846 35.87 92.42 35.254 92.6906 34.722C92.9613 34.1807 93.3393 33.7607 93.8246 33.462C94.3193 33.1633 94.8793 33.014 95.5046 33.014C96.41 33.014 97.1193 33.3127 97.6326 33.91C98.146 34.498 98.4026 35.31 98.4026 36.346V36.766ZM95.5186 33.896C94.9213 33.896 94.4406 34.0827 94.0766 34.456C93.722 34.8293 93.512 35.3567 93.4466 36.038H97.4086C97.39 35.3473 97.2173 34.82 96.8906 34.456C96.564 34.0827 96.1066 33.896 95.5186 33.896ZM102.845 33.014C103.713 33.014 104.357 33.238 104.777 33.686C105.207 34.1247 105.421 34.7967 105.421 35.702V40H104.315V38.838C104.138 39.2393 103.867 39.552 103.503 39.776C103.139 39.9907 102.719 40.098 102.243 40.098C101.805 40.098 101.399 40.0093 101.025 39.832C100.661 39.6547 100.372 39.4073 100.157 39.09C99.9428 38.7727 99.8354 38.4227 99.8354 38.04C99.8354 37.5267 99.9661 37.13 100.227 36.85C100.489 36.5607 100.918 36.3553 101.515 36.234C102.113 36.1033 102.943 36.038 104.007 36.038H104.315V35.576C104.315 35.0067 104.199 34.596 103.965 34.344C103.732 34.0827 103.354 33.952 102.831 33.952C102.047 33.952 101.268 34.1947 100.493 34.68L100.115 33.854C100.47 33.602 100.895 33.4013 101.389 33.252C101.893 33.0933 102.379 33.014 102.845 33.014ZM102.397 39.202C102.957 39.202 103.415 39.0153 103.769 38.642C104.133 38.2593 104.315 37.7693 104.315 37.172V36.766H104.063C103.242 36.766 102.617 36.8033 102.187 36.878C101.758 36.9433 101.45 37.06 101.263 37.228C101.086 37.3867 100.997 37.6247 100.997 37.942C100.997 38.306 101.128 38.6093 101.389 38.852C101.66 39.0853 101.996 39.202 102.397 39.202ZM111.361 33.994L110.619 34.064C109.919 34.1293 109.411 34.3487 109.093 34.722C108.785 35.0953 108.631 35.5573 108.631 36.108V40H107.497V33.182H108.603V34.372C108.986 33.5787 109.737 33.1353 110.857 33.042L111.263 33.014L111.361 33.994ZM115.18 40.098C114.508 40.098 113.925 39.9533 113.43 39.664C112.935 39.3747 112.553 38.9687 112.282 38.446C112.021 37.914 111.89 37.2933 111.89 36.584C111.89 35.8747 112.025 35.254 112.296 34.722C112.576 34.1807 112.963 33.7607 113.458 33.462C113.962 33.1633 114.55 33.014 115.222 33.014C115.679 33.014 116.127 33.098 116.566 33.266C117.005 33.4247 117.359 33.6393 117.63 33.91L117.252 34.75C116.608 34.2273 115.955 33.966 115.292 33.966C114.592 33.966 114.046 34.1947 113.654 34.652C113.262 35.1093 113.066 35.7533 113.066 36.584C113.066 37.4053 113.262 38.04 113.654 38.488C114.046 38.936 114.592 39.16 115.292 39.16C115.955 39.16 116.608 38.8987 117.252 38.376L117.63 39.216C117.341 39.4867 116.977 39.7013 116.538 39.86C116.099 40.0187 115.647 40.098 115.18 40.098ZM122.425 33.014C124.059 33.014 124.875 33.9147 124.875 35.716V40H123.741V35.786C123.741 35.1513 123.615 34.6893 123.363 34.4C123.121 34.1107 122.729 33.966 122.187 33.966C121.562 33.966 121.063 34.1573 120.689 34.54C120.316 34.9227 120.129 35.4407 120.129 36.094V40H118.995V30.13H120.129V34.274C120.353 33.8633 120.661 33.5507 121.053 33.336C121.455 33.1213 121.912 33.014 122.425 33.014ZM132.074 33.182H134.006V34.078H132.074V40H130.94V34.078H129.61V33.182H130.94V32.958C130.94 32.0527 131.164 31.3667 131.612 30.9C132.069 30.4333 132.769 30.172 133.712 30.116L134.272 30.088L134.356 30.97L133.712 31.012C133.142 31.0493 132.727 31.2127 132.466 31.502C132.204 31.782 132.074 32.216 132.074 32.804V33.182ZM137.915 40.098C137.271 40.098 136.702 39.9533 136.207 39.664C135.722 39.3747 135.344 38.964 135.073 38.432C134.812 37.8907 134.681 37.2653 134.681 36.556C134.681 35.8467 134.812 35.226 135.073 34.694C135.344 34.1527 135.722 33.7373 136.207 33.448C136.702 33.1587 137.271 33.014 137.915 33.014C138.559 33.014 139.128 33.1587 139.623 33.448C140.118 33.7373 140.496 34.1527 140.757 34.694C141.028 35.226 141.163 35.8467 141.163 36.556C141.163 37.2653 141.028 37.8907 140.757 38.432C140.496 38.964 140.118 39.3747 139.623 39.664C139.128 39.9533 138.559 40.098 137.915 40.098ZM137.915 39.16C138.587 39.16 139.1 38.9407 139.455 38.502C139.819 38.054 140.001 37.4053 140.001 36.556C140.001 35.7253 139.819 35.086 139.455 34.638C139.091 34.1807 138.578 33.952 137.915 33.952C137.252 33.952 136.739 34.1807 136.375 34.638C136.011 35.086 135.829 35.7253 135.829 36.556C135.829 37.396 136.006 38.04 136.361 38.488C136.725 38.936 137.243 39.16 137.915 39.16ZM146.717 33.994L145.975 34.064C145.275 34.1293 144.766 34.3487 144.449 34.722C144.141 35.0953 143.987 35.5573 143.987 36.108V40H142.853V33.182H143.959V34.372C144.341 33.5787 145.093 33.1353 146.213 33.042L146.619 33.014L146.717 33.994ZM154.17 33.014C155.038 33.014 155.682 33.238 156.102 33.686C156.531 34.1247 156.746 34.7967 156.746 35.702V40H155.64V38.838C155.462 39.2393 155.192 39.552 154.828 39.776C154.464 39.9907 154.044 40.098 153.568 40.098C153.129 40.098 152.723 40.0093 152.35 39.832C151.986 39.6547 151.696 39.4073 151.482 39.09C151.267 38.7727 151.16 38.4227 151.16 38.04C151.16 37.5267 151.29 37.13 151.552 36.85C151.813 36.5607 152.242 36.3553 152.84 36.234C153.437 36.1033 154.268 36.038 155.332 36.038H155.64V35.576C155.64 35.0067 155.523 34.596 155.29 34.344C155.056 34.0827 154.678 33.952 154.156 33.952C153.372 33.952 152.592 34.1947 151.818 34.68L151.44 33.854C151.794 33.602 152.219 33.4013 152.714 33.252C153.218 33.0933 153.703 33.014 154.17 33.014ZM153.722 39.202C154.282 39.202 154.739 39.0153 155.094 38.642C155.458 38.2593 155.64 37.7693 155.64 37.172V36.766H155.388C154.566 36.766 153.941 36.8033 153.512 36.878C153.082 36.9433 152.774 37.06 152.588 37.228C152.41 37.3867 152.322 37.6247 152.322 37.942C152.322 38.306 152.452 38.6093 152.714 38.852C152.984 39.0853 153.32 39.202 153.722 39.202ZM165.315 40.098C164.643 40.098 164.06 39.9533 163.565 39.664C163.07 39.3747 162.688 38.9687 162.417 38.446C162.156 37.914 162.025 37.2933 162.025 36.584C162.025 35.8747 162.16 35.254 162.431 34.722C162.711 34.1807 163.098 33.7607 163.593 33.462C164.097 33.1633 164.685 33.014 165.357 33.014C165.814 33.014 166.262 33.098 166.701 33.266C167.14 33.4247 167.494 33.6393 167.765 33.91L167.387 34.75C166.743 34.2273 166.09 33.966 165.427 33.966C164.727 33.966 164.181 34.1947 163.789 34.652C163.397 35.1093 163.201 35.7533 163.201 36.584C163.201 37.4053 163.397 38.04 163.789 38.488C164.181 38.936 164.727 39.16 165.427 39.16C166.09 39.16 166.743 38.8987 167.387 38.376L167.765 39.216C167.476 39.4867 167.112 39.7013 166.673 39.86C166.234 40.0187 165.782 40.098 165.315 40.098ZM171.958 40.098C171.314 40.098 170.745 39.9533 170.25 39.664C169.765 39.3747 169.387 38.964 169.116 38.432C168.855 37.8907 168.724 37.2653 168.724 36.556C168.724 35.8467 168.855 35.226 169.116 34.694C169.387 34.1527 169.765 33.7373 170.25 33.448C170.745 33.1587 171.314 33.014 171.958 33.014C172.602 33.014 173.171 33.1587 173.666 33.448C174.161 33.7373 174.539 34.1527 174.8 34.694C175.071 35.226 175.206 35.8467 175.206 36.556C175.206 37.2653 175.071 37.8907 174.8 38.432C174.539 38.964 174.161 39.3747 173.666 39.664C173.171 39.9533 172.602 40.098 171.958 40.098ZM171.958 39.16C172.63 39.16 173.143 38.9407 173.498 38.502C173.862 38.054 174.044 37.4053 174.044 36.556C174.044 35.7253 173.862 35.086 173.498 34.638C173.134 34.1807 172.621 33.952 171.958 33.952C171.295 33.952 170.782 34.1807 170.418 34.638C170.054 35.086 169.872 35.7253 169.872 36.556C169.872 37.396 170.049 38.04 170.404 38.488C170.768 38.936 171.286 39.16 171.958 39.16ZM182.636 33.182V40H181.53V38.838C181.315 39.2487 181.012 39.5613 180.62 39.776C180.237 39.9907 179.803 40.098 179.318 40.098C178.506 40.098 177.894 39.874 177.484 39.426C177.073 38.9687 176.868 38.2967 176.868 37.41V33.182H178.002V37.382C178.002 37.9887 178.123 38.4367 178.366 38.726C178.608 39.006 178.991 39.146 179.514 39.146C180.111 39.146 180.592 38.9547 180.956 38.572C181.32 38.18 181.502 37.6667 181.502 37.032V33.182H182.636ZM188.173 33.014C189.807 33.014 190.623 33.9147 190.623 35.716V40H189.489V35.786C189.489 35.1513 189.363 34.6893 189.111 34.4C188.869 34.1107 188.477 33.966 187.935 33.966C187.31 33.966 186.811 34.1573 186.437 34.54C186.064 34.9227 185.877 35.4407 185.877 36.094V40H184.743V33.182H185.863V34.302C186.087 33.882 186.4 33.5647 186.801 33.35C187.203 33.126 187.66 33.014 188.173 33.014ZM195.696 39.188C195.902 39.188 196.107 39.174 196.312 39.146L196.256 40.042C196.042 40.0793 195.808 40.098 195.556 40.098C194.735 40.098 194.114 39.8833 193.694 39.454C193.284 39.0247 193.078 38.4273 193.078 37.662V34.078H191.748V33.182H193.078V31.11H194.212V33.182H196.144V34.078H194.212V37.578C194.212 38.6513 194.707 39.188 195.696 39.188ZM201.322 33.994L200.58 34.064C199.88 34.1293 199.372 34.3487 199.054 34.722C198.746 35.0953 198.592 35.5573 198.592 36.108V40H197.458V33.182H198.564V34.372C198.947 33.5787 199.698 33.1353 200.818 33.042L201.224 33.014L201.322 33.994ZM207.704 33.196H208.838L204.806 42.52H203.644L204.792 39.916L201.908 33.196H203.112L205.394 38.768L207.704 33.196ZM209.335 38.572H210.763V40H209.335V38.572ZM212.541 38.572H213.969V40H212.541V38.572ZM215.747 38.572H217.175V40H215.747V38.572Z" fill="white"/>
<defs>
<filter id="filter0_d_0_380" x="0" y="0" width="498" height="74" filterUnits="userSpaceOnUse" color-interpolation-filters="sRGB">
<feFlood flood-opacity="0" result="BackgroundImageFix"/>
<feColorMatrix in="SourceAlpha" type="matrix" values="0 0 0 0 0 0 0 0 0 0 0 0 0 0 0 0 0 0 127 0" result="hardAlpha"/>
<feOffset dy="2"/>
<feGaussianBlur stdDeviation="4.5"/>
<feColorMatrix type="matrix" values="0 0 0 0 0 0 0 0 0 0 0 0 0 0 0 0 0 0 0.0532439 0"/>
<feBlend mode="normal" in2="BackgroundImageFix" result="effect1_dropShadow_0_380"/>
<feBlend mode="normal" in="SourceGraphic" in2="effect1_dropShadow_0_380" result="shape"/>
</filter>
</defs>
</svg>
